<?xml version="1.0" standalone="no"?>
<!DOCTYPE svg PUBLIC "-//W3C//DTD SVG 20010904//EN"
 "http://www.w3.org/TR/2001/REC-SVG-20010904/DTD/svg10.dtd">
<svg version="1.0" xmlns="http://www.w3.org/2000/svg"
 width="225.000000pt" height="225.000000pt" viewBox="0 0 225.000000 225.000000"
 preserveAspectRatio="xMidYMid meet">
<metadata>
Created by potrace 1.11, written by Peter Selinger 2001-2013
</metadata>
<g transform="translate(0.000000,225.000000) scale(0.100000,-0.100000)"
fill="#000000" stroke="none">
<path d="M975 2239 c-227 -29 -450 -137 -621 -301 -111 -106 -173 -189 -234
-313 -275 -559 -50 -1230 505 -1505 376 -186 830 -148 1161 98 104 77 237 220
296 318 227 376 220 843 -18 1204 -59 90 -184 224 -274 291 -219 165 -527 244
-815 208z m223 -414 c2 -1 -8 -46 -21 -99 l-25 -96 40 -11 c22 -5 46 -8 52 -6
7 3 21 41 31 85 24 108 22 105 81 91 27 -6 53 -15 57 -19 4 -4 -3 -50 -16
-103 l-23 -96 63 -26 c73 -31 144 -90 167 -139 47 -99 -6 -254 -98 -287 l-33
-12 53 -51 c64 -63 81 -113 65 -193 -22 -109 -87 -196 -168 -224 -40 -15 -197
-19 -249 -7 l-32 7 -16 -67 c-10 -37 -21 -83 -27 -103 l-9 -37 -60 15 c-33 9
-60 21 -60 27 0 6 11 52 24 102 l23 91 -46 11 c-25 6 -49 8 -52 4 -4 -4 -17
-49 -29 -100 -22 -91 -23 -93 -47 -87 -14 3 -39 9 -55 12 -16 3 -32 11 -34 18
-3 7 4 49 15 93 12 44 21 87 21 95 0 10 -35 23 -120 43 -66 16 -120 32 -120
35 0 3 13 36 30 72 l30 66 32 -10 c58 -16 97 -12 108 14 15 35 140 544 140
570 0 33 -27 54 -89 69 -58 13 -57 10 -31 109 l10 37 120 -31 c67 -16 123 -27
126 -25 3 3 14 43 25 89 10 46 21 89 24 96 3 8 19 8 62 -4 32 -8 59 -16 61
-18z"/>
<path d="M1111 1448 c-12 -39 -51 -197 -51 -208 0 -12 179 -42 209 -35 54 12
82 29 96 56 46 88 -18 164 -171 203 -34 9 -64 16 -67 16 -3 0 -10 -15 -16 -32z"/>
<path d="M1025 1098 c-12 -34 -63 -253 -60 -256 9 -10 119 -33 182 -39 126
-11 193 31 193 121 0 65 -75 124 -200 159 -98 27 -110 28 -115 15z"/>
</g>
</svg>
